- 
http://www.Speed.Cd
 
http://www.Speed.Cd       the fast  and The Hottest Private Tracker on the net

Please Seed back to make the speed Faster!!
 ............ NFO .............
-[IMG]http://i.imgur.com/O6yP3ba.jpg[/IMG]

Source: LIMITED.720p.BluRay.x264-GECKOS
 
http://www.imdb.com/title/tt2063781/

A married couple whose bond is built on a mutual love of alcohol gets their relationship put to the test when the wife decides to get sober

General
Complete name                            : Smashed 2012 LIMITED BRRip x264 AAC-OFFLiNE.mp4
Format                                   : MPEG-4
Format profile                           : Base Media
Codec ID                                 : isom
File size                                : 1.42 GiB
Duration                                 : 1h 21mn
Overall bit rate mode                    : Variable
Overall bit rate                         : 2 506 Kbps
Encoded date                             : UTC 2013-02-26 09:10:58
Tagged date                              : UTC 2013-02-26 09:10:58

Video
ID                                       : 1
Format                                   : AVC
Format/Info                              : Advanced Video Codec
Format profile                           : High@L4.1
Format settings, CABAC                   : Yes
Format settings, ReFrames                : 3 frames
Codec ID                                 : avc1
Codec ID/Info                            : Advanced Video Coding
Duration                                 : 1h 21mn
Bit rate mode                            : Variable
Bit rate                                 : 2 185 Kbps
Maximum bit rate                         : 40.0 Mbps
Width                                    : 720 pixels
Height                                   : 384 pixels
Display aspect ratio                     : 1.85:1
Frame rate mode                          : Constant
Frame rate                               : 23.976 fps
Color space                              : YUV
Chroma subsampling                       : 4:2:0
Bit depth                                : 8 bits
Scan type                                : Progressive
Bits/(Pixel*Frame)                       : 0.330
Stream size                              : 1.24 GiB (87%)
Writing library                          : x264 core 129 r2245 bc13772

Audio
ID                                       : 2
Format                                   : AAC
Format/Info                              : Advanced Audio Codec
Format profile                           : LC
Codec ID                                 : 40
Duration                                 : 1h 21mn
Bit rate mode                            : Variable
Bit rate                                 : 316 Kbps
Maximum bit rate                         : 381 Kbps
Channel(s)                               : 6 channels
Channel positions                        : Front: L C R, Side: L R, LFE
Sampling rate                            : 48.0 KHz
Compression mode                         : Lossy
Stream size                              : 184 MiB (13%)
Language                                 : English
Encoded date                             : UTC 2013-02-26 07:30:42
Tagged date                              : UTC 2013-02-26 09:11:34

Subtitles: English.srt included in folder

[IMG]http://i.imgur.com/OMAJONF.png[/IMG]
[IMG]http://i.imgur.com/BmZmd4e.png[/IMG]
[IMG]http://i.imgur.com/ikhzrT5.png[/IMG]
[IMG]http://i.imgur.com/VPwNvMw.png[/IMG]

Greets: To Our Friends